<?xml version="1.0" encoding="utf-8"?>
<!-- Generator: Adobe Illustrator 26.0.1, SVG Export Plug-In . SVG Version: 6.00 Build 0)  -->
<svg version="1.1" id="Camada_1" xmlns="http://www.w3.org/2000/svg" xmlns:xlink="http://www.w3.org/1999/xlink" x="0px" y="0px"
	 viewBox="0 0 500 500" enable-background="new 0 0 500 500" xml:space="preserve">
<g>
	<linearGradient id="SVGID_1_" gradientUnits="userSpaceOnUse" x1="56.2579" y1="275.5788" x2="179.7477" y2="275.5788">
		<stop  offset="0" style="stop-color:#F18661"/>
		<stop  offset="1" style="stop-color:#AF468E"/>
	</linearGradient>
	<path fill="url(#SVGID_1_)" d="M178.72,227.14c0,0-26.12,13.06-66.86,13.58c-40.74,0.52-54.33,6.27-55.37,24.55
		c-1.04,18.28,1.57,55.37,7.84,57.98c6.27,2.61,8.88,3.96,6.79-8.21c-2.09-12.16-5.86-62.03-1.72-63.77
		c4.14-1.74,88.43,12.95,101.49-8.99C183.94,220.35,178.72,227.14,178.72,227.14z"/>
	
		<linearGradient id="SVGID_00000060723346128430376650000009722685709640361609_" gradientUnits="userSpaceOnUse" x1="407.2645" y1="67.8714" x2="407.2645" y2="759.8248">
		<stop  offset="0" style="stop-color:#E3AA8C"/>
		<stop  offset="1" style="stop-color:#AE7466"/>
	</linearGradient>
	<path fill="url(#SVGID_00000060723346128430376650000009722685709640361609_)" d="M694.72,599.6
		c-19.19,19.35-22.76,27.83-37.78,43.17c-9.24,9.44-13.74,12.21-35.62,29.14c-43.44,33.62-45.36,37.94-60.44,48.57
		c-33.28,23.46-71.91,36.29-93.65,38.77c-89.48,10.19-222.74-117.7-229.48-251.09c-4.17-82.54,9.4-177.6,4.19-204.77
		c-2.52-13.01-27.8-17.61-59.08-21.19c-13.99-1.61-29.2-3.01-44.11-4.86c-0.06-0.02-0.08-0.02-0.08-0.02
		c-21.27-2.62-41.95-6.18-57.63-12.57c-0.87-0.35-1.71-0.71-2.56-1.14c-3.97-1.77-7.69-3.86-11.18-6.2
		c-7.46-12.06,41.95-12,62.84-12.51c20.89-0.53,32.38-9.4,38.64-9.4c6.28,0,9.4-5.23,5.23-9.94c-4.17-4.7-5.23,3.66-26.64,10.98
		c-21.27,7.28-109.06-14.58-110.22-14.87c-0.02,0-0.02,0-0.02,0c-1.1-2.2-2.12-4.39-3.03-6.61c-10.05-23.51-11.75-47.38-9.48-55.82
		c4.17-15.68,85.66-4.19,123.26-10.45c37.62-6.28,36.58-23,65.83-60.6C242.97,50.58,325.51,76.7,325.51,76.7
		c64.36,8.62,102.74,76.61,118.44,122.57c11,32.21,25.52,45.94,50.94,68.03h0.02c0,0,0,0,0,0.02c10.88,9.44,23.75,20.42,39.19,35.02
		c13.91,13.16,34.76,32.78,58.94,56.54c61.09,60.18,143.37,147.24,188.66,225.69c0,0,11.3,12.89,8.7,15.88
		c-4.09,4.69-38.58-32.68-68.7-23.53C715.26,578.89,708.41,585.79,694.72,599.6z"/>
	<path opacity="0.53" fill="#B85B49" d="M608.42,850.72c-46.68-29.67-95.09-63.14-141.19-91.46
		c-133.73-82.2-225.31-168.56-229.49-251.09c-4.18-82.53,9.4-177.61,4.18-204.77c-2.51-13.02-27.79-17.61-59.07-21.21
		c26.39,1.38,59.65,0.29,85.25-9.95c50.08-20.04,101.63-46.11,101.63-46.11l125.16,41.18h0.02c0,0,0,0,0,0.02
		c0.23,1.9,10.05,91.04-50.98,118.6c-61.66,27.85-122.97-11.14-136.88,0c-13.94,11.14-30.82,43.19-29.36,83.58
		c1.48,40.39,10.89,147.66,22.21,112.83c11.32-34.83,52.03-83.91,52.03-83.91l129.67,75.6c0,0,1.09,167.12,13.56,149
		c12.47-18.1,97.77-96.78,97.77-96.78L608.42,850.72z"/>
	<path fill="#381F3D" d="M230.43,349.05v-10.24c0-3.18,1.71-6.11,4.48-7.67c20.27-11.39,104.42-57.13,150.14-58.05l43.26-0.87
		c4.93-0.1,8.97,3.87,8.97,8.8l0,0c0,3.95-2.61,7.41-6.41,8.47c-27.67,7.74-137.64,39.4-187.31,67.2
		C237.68,360,230.43,355.8,230.43,349.05z"/>
	<path fill="#F3BD98" d="M372.65,95.51c0,0-40.53,17.4-39.14,57.8c1.39,40.4,33.43,44.58,20.89,80.79
		c-12.54,36.22-29.38,130.94,35.46,136.51c64.84,5.57,109.05-35.25,105.05-103.29C490.92,199.28,372.65,95.51,372.65,95.51z"/>
	<path fill="#381F3D" d="M23.74,192.34c0,0-15.84-34.15-9.57-36.76c6.27-2.61,28.21-2.09,29.25,3.13
		C44.47,163.93,49.86,203.83,23.74,192.34z"/>
	<path opacity="0.53" fill="#9F493D" d="M166.95,240.72c-11.12-1.04-14.63,5.22-30.03,8.36c-15.4,3.13-64.67,1.25-64.77,6.27
		c-0.06,2.65,3.22,5.85,6.33,8.27c-3.99-1.78-7.71-3.87-11.18-6.21c-7.46-12.06,41.94-11.99,62.83-12.52
		c20.89-0.52,32.39-9.4,38.66-9.4c6.27,0,9.4-5.22,5.22-9.92c-4.18-4.7-5.22,3.66-26.64,10.97
		c-21.27,7.27-109.05-14.58-110.22-14.88c-0.02,0-0.02,0-0.02,0c-1.09-2.19-2.11-4.39-3.03-6.6c18.45,6.06,57.94,17.49,88.72,15.73
		c41.58-2.38,47.01-13.39,54.85-9.57C185.51,225.05,178.09,241.76,166.95,240.72z"/>
	
		<linearGradient id="SVGID_00000164504763869363110410000010905481133534049671_" gradientUnits="userSpaceOnUse" x1="257.3871" y1="149.6368" x2="299.9053" y2="149.6368">
		<stop  offset="0.0486" style="stop-color:#FFFFFF"/>
		<stop  offset="1" style="stop-color:#CEBBDC"/>
	</linearGradient>
	<path opacity="0.54" fill="url(#SVGID_00000164504763869363110410000010905481133534049671_)" d="M299.91,163.41
		c0,0-21.94,6.27-32.39,3.13c-2.76-0.84-5.01-2.78-6.69-5.43c-4.66-7.38-4.83-20.06,0.94-28.52c0,0,0.86-0.4,2.47-0.61
		c3.59-0.48,10.95,0,21.04,7.92C299.91,151.39,299.91,163.41,299.91,163.41z"/>
	<path fill="#381F3D" d="M260.83,161.11c-4.66-7.38-4.83-20.06,0.94-28.52c0,0,0.86-0.4,2.47-0.61c6.25,2.84,13.33,8.13,14.42,17.66
		C280.24,163.6,269.86,163.37,260.83,161.11z"/>
	<path fill="#FFFFFF" d="M283.71,145.91c0,3.32-2.69,6.01-6.01,6.01c-3.32,0-6.01-2.69-6.01-6.01c0-3.32,2.69-6.01,6.01-6.01
		C281.02,139.9,283.71,142.59,283.71,145.91z"/>
</g>
</svg>
